# xmcd
#
# Track frame offsets:
#	150
#	16270
#	34492
#	54174
#	70273
#	91879
#	106824
#	126577
#	148670
#	166401
#	180130
#
# Disc length: 2680 seconds
#
# Revision: 2
# Processed by: cddbd v1.5.2PL0 Copyright (c) Steve Scherf et al.
# Submitted via: dBpowerAMP V4.0
#
DISCID=8d0a760b
DTITLE=Ted Russel Kamp - Poor Man´s Paradise
DYEAR=2009
DGENRE=Alt. Country
TTITLE0=Just a yesterday away
TTITLE1=Just go south
TTITLE2=Let the rain fall down
TTITLE3=Long distance Man
TTITLE4=Let love do the rest
TTITLE5=Ballad of that guy
TTITLE6=Dixie
TTITLE7=Poor man´s paradise
TTITLE8=Old folk blues
TTITLE9=Never gonna do you wrong
TTITLE10=Player piano
EXTD=
EXTT0=
EXTT1=
EXTT2=
EXTT3=
EXTT4=
EXTT5=
EXTT6=
EXTT7=
EXTT8=
EXTT9=
EXTT10=
PLAYORDER=
